<?xml version="1.0" encoding="utf-8"?>
<!-- Generator: Adobe Illustrator 22.1.0, SVG Export Plug-In . SVG Version: 6.00 Build 0)  -->
<svg version="1.1" id="Capa_1" xmlns="http://www.w3.org/2000/svg" xmlns:xlink="http://www.w3.org/1999/xlink" x="0px" y="0px"
	 viewBox="0 0 72.8 68.8" style="enable-background:new 0 0 72.8 68.8;" xml:space="preserve">
<style type="text/css">
	.st0{clip-path:url(#SVGID_2_);fill:#FFFFFF;}
</style>
<g>
	<defs>
		<rect id="SVGID_1_" x="14.3" y="0.7" width="44.3" height="67.4"/>
	</defs>
	<clipPath id="SVGID_2_">
		<use xlink:href="#SVGID_1_"  style="overflow:visible;"/>
	</clipPath>
	<path class="st0" d="M14.9,65.3c0.1,0,0.2,0.1,0.4,0.1c0.4,0,0.8-0.2,0.9-0.6l4.9-12.7H22c0.8,0,1.4-0.6,1.4-1.4
		c0-0.7-0.5-1.3-1.2-1.4l3.3-8.5h3.6v11.2h-0.6c-0.8,0-1.4,0.6-1.4,1.4c0,0.8,0.6,1.4,1.4,1.4h0.6v12.3c0,0.5,0.4,1,1,1
		c0.5,0,1-0.4,1-1V54.9h0.6c0.8,0,1.4-0.6,1.4-1.4c0-0.8-0.6-1.4-1.4-1.4h-0.6V40.8h3.7l3.5,9c-0.7,0.1-1.2,0.7-1.2,1.4
		c0,0.8,0.6,1.4,1.4,1.4h0.9L44,64.7c0.2,0.4,0.5,0.6,0.9,0.6c0.1,0,0.2,0,0.4-0.1c0.5-0.2,0.8-0.8,0.6-1.3l-4.5-11.4h0
		c0.8,0,1.4-0.6,1.4-1.4c0-0.8-0.6-1.4-1.4-1.4h-1.1l-3.5-8.9h0.8c1.6,0,2.8-1.3,2.8-2.8c0-1.6-1.3-2.8-2.8-2.8h-3l-3.1-7.9h2.5
		c0,0,0.1,0,0.1,0c2.9,7.2,9.9,12.2,18,12.2h1V25.9c3.1-0.5,5.6-3.2,5.6-6.5c0-3.3-2.4-6-5.6-6.5V0.7h-1c-8.2,0-15.2,5.1-18,12.2
		c0,0-0.1,0-0.1,0H23.4c-3.2,0-5.8,3.2-5.8,7.2c0,4,2.6,7.2,5.8,7.2h5.1l-3,7.9h-2.9c-1.6,0-2.8,1.3-2.8,2.8c0,1.6,1.3,2.8,2.8,2.8
		h0.7L20,49.3h-1.1c-0.8,0-1.4,0.6-1.4,1.4c0,0.8,0.6,1.4,1.4,1.4h0.1l-4.6,12C14.1,64.6,14.4,65.1,14.9,65.3 M53,23.9V15
		c2.1,0.5,3.6,2.3,3.6,4.5S55,23.5,53,23.9 M34.6,21h3.1c-0.2,1.8-1.2,3.3-2.4,4C34.9,23.7,34.7,22.3,34.6,21 M35.2,15.2
		c1.2,0.7,2.2,2.2,2.4,4h-3.1C34.7,17.8,34.9,16.5,35.2,15.2 M33.3,14.9c-0.4,1.4-0.6,2.8-0.7,4.3H19.5c0.3-2.5,1.9-4.3,3.8-4.3
		H33.3z M35.9,26.8c2-0.9,3.5-3.2,3.7-5.8h4.3c0.5,0,0.9-0.4,0.9-0.9c0-0.5-0.4-0.9-0.9-0.9h-4.3c-0.3-2.7-1.7-4.9-3.7-5.8
		c2.5-6,8.3-10.3,15.1-10.7v34.8C44.2,37.1,38.4,32.8,35.9,26.8 M33.3,25.3h-3.4h0h-6.6c-1.9,0-3.5-1.9-3.8-4.3h13.1
		C32.7,22.5,32.9,23.9,33.3,25.3 M30.9,35.1v-3.7l1.4,3.7H30.9z M27.6,35.1l1.4-3.6v3.6H27.6z"/>
</g>
</svg>
