<?xml version="1.0" encoding="utf-8"?>
<!-- Generator: Adobe Illustrator 22.1.0, SVG Export Plug-In . SVG Version: 6.00 Build 0)  -->
<svg version="1.1" id="Capa_1" xmlns="http://www.w3.org/2000/svg" xmlns:xlink="http://www.w3.org/1999/xlink" x="0px" y="0px"
	 viewBox="0 0 72.8 68.8" style="enable-background:new 0 0 72.8 68.8;" xml:space="preserve">
<style type="text/css">
	.st0{clip-path:url(#SVGID_2_);fill:#FFFFFF;}
</style>
<g>
	<defs>
		<rect id="SVGID_1_" x="4.8" y="2.5" width="63.3" height="63.9"/>
	</defs>
	<clipPath id="SVGID_2_">
		<use xlink:href="#SVGID_1_"  style="overflow:visible;"/>
	</clipPath>
	<path class="st0" d="M47.3,50.6c-0.1,0-0.2,0-0.4-0.1L25.3,39.6c-0.4-0.2-0.5-0.7-0.3-1c0.2-0.4,0.7-0.5,1-0.3l21.6,10.9
		c0.4,0.2,0.5,0.7,0.3,1C47.8,50.4,47.6,50.6,47.3,50.6"/>
	<path class="st0" d="M25.4,29.6c-0.3,0-0.5-0.1-0.7-0.4c-0.2-0.4-0.1-0.8,0.3-1.1l16.6-9.6c0.4-0.2,0.8-0.1,1.1,0.3
		c0.2,0.4,0.1,0.8-0.3,1.1l-16.6,9.6C25.7,29.5,25.5,29.6,25.4,29.6"/>
	<path class="st0" d="M16.2,45.5c-6.3,0-11.4-5.1-11.4-11.4c0-6.3,5.1-11.4,11.4-11.4s11.4,5.1,11.4,11.4
		C27.6,40.4,22.5,45.5,16.2,45.5 M16.2,24.2c-5.4,0-9.9,4.4-9.9,9.9s4.4,9.9,9.9,9.9s9.9-4.4,9.9-9.9S21.6,24.2,16.2,24.2"/>
	<path class="st0" d="M56.6,66.3c-6.3,0-11.4-5.1-11.4-11.4s5.1-11.4,11.4-11.4S68,48.6,68,54.9S62.9,66.3,56.6,66.3 M56.6,45.1
		c-5.4,0-9.9,4.4-9.9,9.9c0,5.4,4.4,9.9,9.9,9.9s9.9-4.4,9.9-9.9C66.5,49.5,62.1,45.1,56.6,45.1"/>
	<path class="st0" d="M51.2,25.3c-6.3,0-11.4-5.1-11.4-11.4S44.9,2.5,51.2,2.5c6.3,0,11.4,5.1,11.4,11.4S57.5,25.3,51.2,25.3
		 M51.2,4c-5.4,0-9.9,4.4-9.9,9.9c0,5.4,4.4,9.9,9.9,9.9s9.9-4.4,9.9-9.9C61.1,8.5,56.6,4,51.2,4"/>
	<path class="st0" d="M46,44.7c-0.1,0-0.2,0-0.4-0.1l-5-2.5c-0.4-0.2-0.5-0.7-0.3-1c0.2-0.4,0.7-0.5,1-0.3l5,2.5
		c0.4,0.2,0.5,0.7,0.3,1C46.5,44.6,46.3,44.7,46,44.7"/>
	<path class="st0" d="M26.2,23.7c-0.3,0-0.5-0.1-0.7-0.4c-0.2-0.4-0.1-0.8,0.3-1.1l5.1-3c0.4-0.2,0.8-0.1,1.1,0.3
		c0.2,0.4,0.1,0.8-0.3,1.1l-5.1,3C26.4,23.7,26.3,23.7,26.2,23.7"/>
	<path class="st0" d="M40,41.7c-0.1,0-0.2,0-0.4-0.1l-7.8-3.9c-0.4-0.2-0.5-0.7-0.3-1c0.2-0.4,0.7-0.5,1-0.3l7.8,3.9
		c0.4,0.2,0.5,0.7,0.3,1C40.6,41.6,40.3,41.7,40,41.7"/>
	<path class="st0" d="M33.1,19.7c-0.3,0-0.5-0.1-0.7-0.4c-0.2-0.4-0.1-0.8,0.3-1.1l2.4-1.4c0.4-0.2,0.8-0.1,1.1,0.3
		c0.2,0.4,0.1,0.8-0.3,1.1l-2.4,1.4C33.4,19.7,33.3,19.7,33.1,19.7"/>
	<path class="st0" d="M16.2,39.5c-3,0-5.4-2.4-5.4-5.4c0-3,2.4-5.4,5.4-5.4c3,0,5.4,2.4,5.4,5.4C21.6,37.1,19.1,39.5,16.2,39.5
		 M16.2,30.3c-2.1,0-3.8,1.7-3.8,3.8s1.7,3.8,3.8,3.8s3.8-1.7,3.8-3.8S18.3,30.3,16.2,30.3"/>
	<path class="st0" d="M56.6,60.3c-3,0-5.4-2.4-5.4-5.4c0-3,2.4-5.4,5.4-5.4c3,0,5.4,2.4,5.4,5.4C62,57.9,59.6,60.3,56.6,60.3
		 M56.6,51.1c-2.1,0-3.8,1.7-3.8,3.8c0,2.1,1.7,3.8,3.8,3.8c2.1,0,3.8-1.7,3.8-3.8C60.4,52.8,58.7,51.1,56.6,51.1"/>
	<path class="st0" d="M51.2,19.3c-3,0-5.4-2.4-5.4-5.4c0-3,2.4-5.4,5.4-5.4c3,0,5.4,2.4,5.4,5.4C56.6,16.9,54.2,19.3,51.2,19.3
		 M51.2,10.1c-2.1,0-3.8,1.7-3.8,3.8c0,2.1,1.7,3.8,3.8,3.8c2.1,0,3.8-1.7,3.8-3.8C55,11.8,53.3,10.1,51.2,10.1"/>
</g>
</svg>
