<?xml version="1.0" encoding="utf-8"?>
<!-- Generator: Adobe Illustrator 22.1.0, SVG Export Plug-In . SVG Version: 6.00 Build 0)  -->
<svg version="1.1" id="Capa_1" xmlns="http://www.w3.org/2000/svg" xmlns:xlink="http://www.w3.org/1999/xlink" x="0px" y="0px"
	 viewBox="0 0 72.8 68.8" style="enable-background:new 0 0 72.8 68.8;" xml:space="preserve">
<style type="text/css">
	.st0{clip-path:url(#SVGID_2_);}
	.st1{clip-path:url(#SVGID_2_);fill:#FFFFFF;}
</style>
<g>
	<defs>
		<rect id="SVGID_1_" x="4" y="0.7" width="64.7" height="67.5"/>
	</defs>
	<clipPath id="SVGID_2_">
		<use xlink:href="#SVGID_1_"  style="overflow:visible;"/>
	</clipPath>
	<path class="st0" d="M38.3,44c4,3.4,9.2,5.5,14.9,5.5c5.7,0,10.9-2.1,14.9-5.5c0-0.8,0-1.4,0-1.8c-1.8-8.7-9.7-11.1-9.7-11.1H48
		c0,0-7.9,2.4-9.7,11.1C38.2,42.6,38.2,43.2,38.3,44"/>
	<path class="st1" d="M53.2,50.2c-5.6,0-11.1-2-15.3-5.7c-0.1-0.1-0.2-0.3-0.2-0.5c-0.1-0.9,0-1.5,0.1-1.9c1.8-9,9.8-11.5,10.1-11.6
		c0.1,0,0.1,0,0.2,0h10.4c0.1,0,0.1,0,0.2,0c0.3,0.1,8.3,2.6,10.1,11.6c0.1,0.4,0.1,1.1,0.1,1.9c0,0.2-0.1,0.4-0.2,0.5
		C64.2,48.2,58.8,50.2,53.2,50.2 M38.9,43.7c4,3.3,9,5.2,14.2,5.2s10.3-1.8,14.2-5.2c0-0.8,0-1.2,0-1.3c-1.6-7.7-8.3-10.3-9.1-10.5
		H48.1c-0.9,0.3-7.5,2.8-9.1,10.5C38.9,42.5,38.9,42.9,38.9,43.7"/>
	<path class="st0" d="M43.3,17.5V9.4H63v8.1c4.1,0,3.9,5.7,0.2,5.7v1.2c0,6.6-5,10-10,10c-5,0-10-3.3-10-10v-1.2
		C39.4,23.2,39.2,17.5,43.3,17.5"/>
	<path class="st1" d="M53.2,35.1L53.2,35.1c-3,0-5.8-1.1-7.8-3.1c-1.9-1.9-2.9-4.5-2.9-7.6v-0.6c-1.9-0.3-2.8-1.9-2.8-3.5
		c0-0.9,0.3-1.8,0.9-2.4c0.4-0.4,1.1-0.9,2.1-1.1V9.4c0-0.4,0.3-0.7,0.7-0.7H63c0.4,0,0.7,0.3,0.7,0.7v7.5c2,0.3,3,1.9,3,3.5
		c0,1.6-1,3.2-2.8,3.5v0.6c0,3-1,5.7-2.9,7.6C59,34,56.2,35.1,53.2,35.1 M53.2,33.8L53.2,33.8c2.6,0,5.1-1,6.8-2.7
		c1.7-1.7,2.5-3.9,2.5-6.6v-1.2c0-0.4,0.3-0.7,0.7-0.7c1.5,0,2.2-1.1,2.2-2.2c0-1.1-0.7-2.2-2.3-2.2c-0.4,0-0.7-0.3-0.7-0.7v-7.5H44
		v7.5c0,0.4-0.3,0.7-0.7,0.7c-1.6,0-2.3,1.1-2.3,2.2c0,1,0.7,2.2,2.2,2.2c0.4,0,0.7,0.3,0.7,0.7v1.2c0,2.7,0.9,5,2.5,6.6
		C48.1,32.8,50.5,33.8,53.2,33.8L53.2,33.8z"/>
	<line class="st0" x1="57.7" y1="21.5" x2="57.7" y2="22.3"/>
	<path class="st1" d="M57.7,23c-0.4,0-0.7-0.3-0.7-0.7v-0.8c0-0.4,0.3-0.7,0.7-0.7c0.4,0,0.7,0.3,0.7,0.7v0.8
		C58.4,22.7,58.1,23,57.7,23"/>
	<line class="st0" x1="48.6" y1="21.5" x2="48.6" y2="22.3"/>
	<path class="st1" d="M48.6,23c-0.4,0-0.7-0.3-0.7-0.7v-0.8c0-0.4,0.3-0.7,0.7-0.7c0.4,0,0.7,0.3,0.7,0.7v0.8
		C49.3,22.7,49,23,48.6,23"/>
	<path class="st0" d="M56.4,27.3c-0.1,1.7-1.5,3.1-3.2,3.1c-1.7,0-3.1-1.4-3.2-3.1H56.4z"/>
	<path class="st1" d="M53.2,31c-2.1,0-3.8-1.6-3.9-3.7c0-0.2,0.1-0.4,0.2-0.5c0.1-0.1,0.3-0.2,0.5-0.2h6.4c0.2,0,0.4,0.1,0.5,0.2
		c0.1,0.1,0.2,0.3,0.2,0.5C57,29.4,55.3,31,53.2,31 M50.8,27.9c0.3,1,1.3,1.8,2.4,1.8c1.1,0,2.1-0.7,2.4-1.8H50.8z"/>
	<path class="st0" d="M63.1,16.1C67.6,4.2,57.6-0.4,52.5,2C39.6-1.9,40.2,12.2,41.8,16.1C53.4,20.3,57.7,5.6,63.1,16.1"/>
	<path class="st1" d="M46,17.6c-1.3,0-2.8-0.2-4.4-0.8c-0.2-0.1-0.3-0.2-0.4-0.4C40,13.6,39.5,6.7,42.8,3c2.1-2.4,5.4-3,9.7-1.7
		c3-1.2,6.9-0.4,9.5,2C63.8,5,66.5,9,63.7,16.4c-0.1,0.2-0.3,0.4-0.6,0.4c-0.3,0-0.5-0.1-0.6-0.4c-1-2-2-3.1-3.1-3.4
		c-1.4-0.4-2.9,0.5-4.9,1.6C52.2,16,49.5,17.6,46,17.6 M42.4,15.6c5,1.7,8.4-0.3,11.5-2.1c2.1-1.2,4-2.3,5.9-1.8
		c1.2,0.3,2.2,1.2,3.2,2.8c1.7-5.7-0.4-8.8-1.9-10.2c-2.3-2.1-5.8-2.8-8.3-1.6c-0.2,0.1-0.3,0.1-0.5,0c-3.9-1.2-6.7-0.7-8.5,1.3
		C41.1,6.9,41.4,13,42.4,15.6"/>
	<path class="st0" d="M56.1,9.1c-0.1,0.6-3.3,9.7-16.4,8c0,0,5.7-5.6,8.2-10.6"/>
	<path class="st1" d="M42.9,18c-1,0-2.1-0.1-3.2-0.2c-0.3,0-0.5-0.2-0.6-0.5c-0.1-0.2,0-0.5,0.2-0.7c0.1-0.1,5.7-5.6,8.1-10.4
		c0.2-0.3,0.6-0.5,0.9-0.3c0.3,0.2,0.5,0.6,0.3,0.9c-1.9,3.8-5.6,7.9-7.4,9.8C53,17.5,55.5,9.1,55.5,9c0.1-0.4,0.4-0.6,0.8-0.5
		c0.4,0.1,0.6,0.4,0.5,0.8C56.8,9.4,54.1,18,42.9,18"/>
	<path class="st0" d="M4.7,62c4,3.4,9.2,5.5,14.9,5.5c5.7,0,10.9-2.1,14.9-5.5c0-0.8,0-1.4,0-1.8c-1.8-8.7-9.7-11.1-9.7-11.1H14.4
		c0,0-7.9,2.4-9.7,11.1C4.7,60.6,4.7,61.2,4.7,62"/>
	<path class="st1" d="M19.6,68.1c-5.6,0-11.1-2-15.3-5.7c-0.1-0.1-0.2-0.3-0.2-0.5c-0.1-0.9,0-1.5,0.1-1.9c1.8-9,9.8-11.5,10.1-11.6
		c0.1,0,0.1,0,0.2,0h10.4c0.1,0,0.1,0,0.2,0c0.3,0.1,8.3,2.6,10.1,11.6c0.1,0.4,0.1,1.1,0.1,1.9c0,0.2-0.1,0.4-0.2,0.5
		C30.7,66.1,25.3,68.1,19.6,68.1 M5.4,61.7c4,3.3,9,5.2,14.2,5.2c5.2,0,10.3-1.8,14.2-5.2c0-0.8,0-1.2,0-1.3
		c-1.6-7.8-8.2-10.2-9.1-10.5H14.5c-0.9,0.3-7.5,2.8-9.1,10.5C5.4,60.5,5.4,60.8,5.4,61.7"/>
	<path class="st0" d="M9.8,35.5v-8.1h19.7v8.1c4.1,0,3.9,5.7,0.2,5.7v1.2c0,6.6-5,10-10,10c-5,0-10-3.3-10-10v-1.2
		C5.9,41.2,5.7,35.5,9.8,35.5"/>
	<path class="st1" d="M19.7,53.1L19.7,53.1c-3,0-5.8-1.1-7.8-3.1c-1.9-1.9-2.9-4.5-2.9-7.6v-0.6c-1.9-0.3-2.8-1.9-2.8-3.5
		c0-0.9,0.3-1.8,0.9-2.4c0.4-0.4,1.1-0.9,2.1-1.1v-7.5c0-0.4,0.3-0.7,0.7-0.7h19.7c0.4,0,0.7,0.3,0.7,0.7v7.5c2,0.3,3,1.9,3,3.5
		c0,1.6-1,3.2-2.8,3.5v0.6c0,3-1,5.7-2.9,7.6C25.4,51.9,22.6,53.1,19.7,53.1 M19.6,51.7L19.6,51.7c2.6,0,5.1-1,6.8-2.7
		c1.7-1.7,2.5-3.9,2.5-6.6v-1.2c0-0.4,0.3-0.7,0.7-0.7c1.5,0,2.2-1.1,2.2-2.2c0-1.1-0.7-2.2-2.3-2.2c-0.4,0-0.7-0.3-0.7-0.7V28H10.5
		v7.5c0,0.4-0.3,0.7-0.7,0.7c-1.6,0-2.3,1.1-2.3,2.2c0,1,0.7,2.2,2.2,2.2c0.4,0,0.7,0.3,0.7,0.7v1.2c0,2.7,0.9,5,2.5,6.6
		C14.5,50.7,17,51.7,19.6,51.7L19.6,51.7z"/>
	<line class="st0" x1="24.2" y1="39.5" x2="24.2" y2="40.3"/>
	<path class="st1" d="M24.2,40.9c-0.4,0-0.7-0.3-0.7-0.7v-0.8c0-0.4,0.3-0.7,0.7-0.7s0.7,0.3,0.7,0.7v0.8
		C24.9,40.6,24.6,40.9,24.2,40.9"/>
	<line class="st0" x1="15.1" y1="39.5" x2="15.1" y2="40.3"/>
	<path class="st1" d="M15.1,40.9c-0.4,0-0.7-0.3-0.7-0.7v-0.8c0-0.4,0.3-0.7,0.7-0.7c0.4,0,0.7,0.3,0.7,0.7v0.8
		C15.8,40.6,15.5,40.9,15.1,40.9"/>
	<path class="st0" d="M22.8,45.2c-0.1,1.7-1.5,3.1-3.2,3.1c-1.7,0-3.1-1.4-3.2-3.1H22.8z"/>
	<path class="st1" d="M19.6,49c-2.1,0-3.8-1.6-3.9-3.7c0-0.2,0.1-0.4,0.2-0.5c0.1-0.1,0.3-0.2,0.5-0.2h6.4c0.2,0,0.4,0.1,0.5,0.2
		c0.1,0.1,0.2,0.3,0.2,0.5C23.4,47.4,21.7,49,19.6,49 M17.2,45.9c0.3,1,1.3,1.8,2.4,1.8c1.1,0,2.1-0.7,2.4-1.8H17.2z"/>
	<path class="st0" d="M29.6,34.1C34.1,22.2,24.1,17.6,19,20C6.1,16.1,6.6,30.2,8.3,34.1C19.8,38.2,24.2,23.6,29.6,34.1"/>
	<path class="st1" d="M12.5,35.5c-1.3,0-2.8-0.2-4.4-0.8c-0.2-0.1-0.3-0.2-0.4-0.4C6.5,31.5,6,24.6,9.2,21c2.1-2.4,5.4-3,9.7-1.7
		c3-1.2,6.9-0.4,9.5,2C30.3,23,33,27,30.2,34.3c-0.1,0.2-0.3,0.4-0.6,0.4c-0.3,0-0.5-0.1-0.6-0.4c-1-2-2-3.1-3.1-3.4
		c-1.4-0.4-2.9,0.5-4.9,1.6C18.7,34,16,35.5,12.5,35.5 M8.8,33.6c5,1.7,8.4-0.3,11.5-2.1c2.1-1.2,4-2.3,5.9-1.8
		c1.2,0.3,2.2,1.2,3.2,2.8c1.7-5.7-0.4-8.8-1.9-10.2c-2.3-2.1-5.8-2.8-8.3-1.6c-0.2,0.1-0.3,0.1-0.5,0c-3.9-1.2-6.7-0.7-8.5,1.3
		C7.5,24.9,7.9,31,8.8,33.6"/>
	<path class="st0" d="M22.6,27.1c-0.1,0.6-3.3,9.7-16.4,8c0,0,5.7-5.6,8.2-10.6"/>
	<path class="st1" d="M9.3,36c-1,0-2.1-0.1-3.2-0.2c-0.3,0-0.5-0.2-0.6-0.5c-0.1-0.2,0-0.5,0.2-0.7c0.1-0.1,5.7-5.6,8.1-10.4
		c0.2-0.3,0.6-0.5,0.9-0.3c0.3,0.2,0.5,0.6,0.3,0.9c-1.9,3.8-5.6,7.9-7.4,9.8C19.4,35.5,21.9,27,22,26.9c0.1-0.4,0.4-0.6,0.8-0.5
		c0.4,0.1,0.6,0.4,0.5,0.8C23.3,27.3,20.6,36,9.3,36"/>
	<path class="st0" d="M20.6,40.1c0,2,1.6,3.5,3.5,3.5c2,0,3.5-1.6,3.5-3.5c0-2-1.6-3.5-3.5-3.5C22.2,36.6,20.6,38.2,20.6,40.1"/>
	<path class="st1" d="M24.2,44.4c-2.3,0-4.2-1.9-4.2-4.2c0-2.3,1.9-4.2,4.2-4.2c2.3,0,4.2,1.9,4.2,4.2
		C28.4,42.5,26.5,44.4,24.2,44.4 M24.2,37.3c-1.6,0-2.9,1.3-2.9,2.9c0,1.6,1.3,2.9,2.9,2.9s2.9-1.3,2.9-2.9
		C27.1,38.6,25.8,37.3,24.2,37.3"/>
	<path class="st0" d="M11.6,40.1c0,2,1.6,3.5,3.5,3.5c2,0,3.5-1.6,3.5-3.5c0-2-1.6-3.5-3.5-3.5C13.1,36.6,11.6,38.2,11.6,40.1"/>
	<path class="st1" d="M15.1,44.4c-2.3,0-4.2-1.9-4.2-4.2c0-2.3,1.9-4.2,4.2-4.2s4.2,1.9,4.2,4.2C19.3,42.5,17.4,44.4,15.1,44.4
		 M15.1,37.3c-1.6,0-2.9,1.3-2.9,2.9c0,1.6,1.3,2.9,2.9,2.9s2.9-1.3,2.9-2.9C18,38.6,16.7,37.3,15.1,37.3"/>
	<path class="st1" d="M43.4,63.8c-0.1,0-0.1,0-0.2,0l-5.4-1.9c-0.2-0.1-0.3-0.2-0.4-0.4c-0.1-0.2,0-0.4,0.1-0.6l2.8-4.6
		c0.2-0.3,0.6-0.4,0.9-0.2c0.3,0.2,0.4,0.6,0.2,0.9L39,60.9l4.6,1.6c0.4,0.1,0.5,0.5,0.4,0.9C44,63.7,43.7,63.8,43.4,63.8"/>
	<path class="st1" d="M38,62c-0.3,0-0.6-0.2-0.7-0.5c-0.1-0.4,0.2-0.7,0.5-0.8c0.1,0,8.1-1.8,12.4-7.5c0.2-0.3,0.6-0.4,0.9-0.1
		c0.3,0.2,0.4,0.6,0.1,0.9c-4.6,6.1-12.9,7.9-13.2,8C38.1,61.9,38.1,62,38,62"/>
	<path class="st1" d="M32,12.8c-0.1,0-0.2,0-0.3-0.1c-0.3-0.2-0.4-0.6-0.2-0.9l2.4-3.9l-4.6-1.6c-0.4-0.1-0.5-0.5-0.4-0.9
		c0.1-0.4,0.5-0.5,0.9-0.4L35,6.9c0.2,0.1,0.3,0.2,0.4,0.4c0.1,0.2,0,0.4-0.1,0.6l-2.8,4.6C32.4,12.7,32.2,12.8,32,12.8"/>
	<path class="st1" d="M22,15.9c-0.1,0-0.3,0-0.4-0.1c-0.3-0.2-0.4-0.6-0.1-0.9C26,8.8,34.3,7,34.6,6.9C35,6.8,35.3,7,35.4,7.4
		c0.1,0.4-0.2,0.7-0.5,0.8c-0.1,0-8.1,1.8-12.4,7.5C22.4,15.8,22.2,15.9,22,15.9"/>
	<line class="st0" x1="24.4" y1="39.5" x2="24.4" y2="40.2"/>
	<path class="st1" d="M24.4,40.9c-0.4,0-0.7-0.3-0.7-0.7v-0.8c0-0.4,0.3-0.7,0.7-0.7c0.4,0,0.7,0.3,0.7,0.7v0.8
		C25.1,40.6,24.8,40.9,24.4,40.9"/>
	<line class="st0" x1="15.3" y1="39.5" x2="15.3" y2="40.2"/>
	<path class="st1" d="M15.3,40.9c-0.4,0-0.7-0.3-0.7-0.7v-0.8c0-0.4,0.3-0.7,0.7-0.7c0.4,0,0.7,0.3,0.7,0.7v0.8
		C16,40.6,15.7,40.9,15.3,40.9"/>
</g>
</svg>
