<?xml version="1.0" encoding="utf-8"?>
<!-- Generator: Adobe Illustrator 22.1.0, SVG Export Plug-In . SVG Version: 6.00 Build 0)  -->
<svg version="1.1" id="Capa_1" xmlns="http://www.w3.org/2000/svg" xmlns:xlink="http://www.w3.org/1999/xlink" x="0px" y="0px"
	 viewBox="0 0 72.8 49.5" style="enable-background:new 0 0 72.8 49.5;" xml:space="preserve">
<style type="text/css">
	.st0{clip-path:url(#SVGID_2_);fill:#FFFFFF;}
	.st1{clip-path:url(#SVGID_4_);fill:#FFFFFF;}
	.st2{clip-path:url(#SVGID_6_);fill:#FFFFFF;}
	.st3{clip-path:url(#SVGID_8_);fill:#FFFFFF;}
	.st4{clip-path:url(#SVGID_10_);fill:#FFFFFF;}
	.st5{clip-path:url(#SVGID_12_);fill:#FFFFFF;}
	.st6{clip-path:url(#SVGID_14_);fill:#FFFFFF;}
	.st7{clip-path:url(#SVGID_16_);fill:#FFFFFF;}
	.st8{clip-path:url(#SVGID_18_);fill:#FFFFFF;}
</style>
<g>
	<g>
		<defs>
			<rect id="SVGID_1_" x="4.4" y="0.3" width="64" height="49.2"/>
		</defs>
		<clipPath id="SVGID_2_">
			<use xlink:href="#SVGID_1_"  style="overflow:visible;"/>
		</clipPath>
		<path class="st0" d="M52.6,46.8H6.7c-1.3,0-2.3-1-2.3-2.3V4c0-1.3,1-2.3,2.3-2.3h45.9c1.3,0,2.3,1,2.3,2.3v40.5
			C54.9,45.8,53.9,46.8,52.6,46.8 M6.7,3.6C6.5,3.6,6.3,3.8,6.3,4v40.5c0,0.2,0.2,0.4,0.4,0.4h45.9c0.2,0,0.4-0.2,0.4-0.4V4
			c0-0.2-0.2-0.4-0.4-0.4H6.7z"/>
	</g>
	<g>
		<defs>
			<rect id="SVGID_3_" x="4.4" y="0.3" width="64" height="49.2"/>
		</defs>
		<clipPath id="SVGID_4_">
			<use xlink:href="#SVGID_3_"  style="overflow:visible;"/>
		</clipPath>
		<path class="st1" d="M50.3,11.7H9c-0.5,0-1-0.4-1-1c0-0.5,0.4-1,1-1h41.3c0.5,0,1,0.4,1,1C51.2,11.3,50.8,11.7,50.3,11.7"/>
	</g>
	<g>
		<defs>
			<rect id="SVGID_5_" x="4.4" y="0.3" width="64" height="49.2"/>
		</defs>
		<clipPath id="SVGID_6_">
			<use xlink:href="#SVGID_5_"  style="overflow:visible;"/>
		</clipPath>
		<path class="st2" d="M12.1,7.6H9.4c-0.5,0-1-0.4-1-1c0-0.5,0.4-1,1-1h2.7c0.5,0,1,0.4,1,1C13.1,7.2,12.6,7.6,12.1,7.6"/>
	</g>
	<g>
		<defs>
			<rect id="SVGID_7_" x="4.4" y="0.3" width="64" height="49.2"/>
		</defs>
		<clipPath id="SVGID_8_">
			<use xlink:href="#SVGID_7_"  style="overflow:visible;"/>
		</clipPath>
		<path class="st3" d="M18.1,7.6h-2.7c-0.5,0-1-0.4-1-1c0-0.5,0.4-1,1-1h2.7c0.5,0,1,0.4,1,1C19,7.2,18.6,7.6,18.1,7.6"/>
	</g>
	<g>
		<defs>
			<rect id="SVGID_9_" x="4.4" y="0.3" width="64" height="49.2"/>
		</defs>
		<clipPath id="SVGID_10_">
			<use xlink:href="#SVGID_9_"  style="overflow:visible;"/>
		</clipPath>
		<path class="st4" d="M64.1,49.5L64.1,49.5c-0.4,0-0.7-0.2-0.9-0.5l-3.4-6.7c-0.1-0.1-0.1-0.3-0.1-0.4V4c0-2,1.9-3.7,4.3-3.7
			s4.3,1.6,4.3,3.7v37.8c0,0.1,0,0.3-0.1,0.4l-3.4,6.7C64.8,49.3,64.4,49.5,64.1,49.5 M61.7,41.6l2.4,4.8l2.4-4.8V4
			c0-0.9-1.1-1.7-2.4-1.7c-1.3,0-2.4,0.8-2.4,1.7C61.7,4,61.7,41.6,61.7,41.6z M67.4,41.8L67.4,41.8L67.4,41.8z"/>
	</g>
	<g>
		<defs>
			<rect id="SVGID_11_" x="4.4" y="0.3" width="64" height="49.2"/>
		</defs>
		<clipPath id="SVGID_12_">
			<use xlink:href="#SVGID_11_"  style="overflow:visible;"/>
		</clipPath>
		<path class="st5" d="M67.4,10.3h-6.7c-0.5,0-1-0.4-1-1c0-0.5,0.4-1,1-1h6.7c0.5,0,1,0.4,1,1S68,10.3,67.4,10.3"/>
	</g>
	<g>
		<defs>
			<rect id="SVGID_13_" x="4.4" y="0.3" width="64" height="49.2"/>
		</defs>
		<clipPath id="SVGID_14_">
			<use xlink:href="#SVGID_13_"  style="overflow:visible;"/>
		</clipPath>
		<path class="st6" d="M36.4,34.6c-0.2,0-0.5-0.1-0.7-0.3c-0.4-0.4-0.4-1,0-1.4l4.7-4.7l-4.7-4.7c-0.4-0.4-0.4-1,0-1.4s1-0.4,1.4,0
			l5.4,5.4c0.4,0.4,0.4,1,0,1.4l-5.4,5.4C36.9,34.5,36.6,34.6,36.4,34.6"/>
	</g>
	<g>
		<defs>
			<rect id="SVGID_15_" x="4.4" y="0.3" width="64" height="49.2"/>
		</defs>
		<clipPath id="SVGID_16_">
			<use xlink:href="#SVGID_15_"  style="overflow:visible;"/>
		</clipPath>
		<path class="st7" d="M22.9,34.6c-0.2,0-0.5-0.1-0.7-0.3l-5.4-5.4c-0.2-0.2-0.3-0.4-0.3-0.7s0.1-0.5,0.3-0.7l5.4-5.4
			c0.4-0.4,1-0.4,1.4,0s0.4,1,0,1.4l-4.7,4.7l4.7,4.7c0.4,0.4,0.4,1,0,1.4C23.4,34.5,23.1,34.6,22.9,34.6"/>
	</g>
	<g>
		<defs>
			<rect id="SVGID_17_" x="4.4" y="0.3" width="64" height="49.2"/>
		</defs>
		<clipPath id="SVGID_18_">
			<use xlink:href="#SVGID_17_"  style="overflow:visible;"/>
		</clipPath>
		<path class="st8" d="M26.9,36c-0.1,0-0.2,0-0.4-0.1c-0.5-0.2-0.7-0.8-0.5-1.2l5.4-13.5c0.2-0.5,0.8-0.7,1.2-0.5
			c0.5,0.2,0.7,0.8,0.5,1.2l-5.4,13.5C27.7,35.8,27.3,36,26.9,36"/>
	</g>
</g>
</svg>
