<?xml version="1.0" encoding="utf-8"?>
<!-- Generator: Adobe Illustrator 22.1.0, SVG Export Plug-In . SVG Version: 6.00 Build 0)  -->
<svg version="1.1" id="Capa_1" xmlns="http://www.w3.org/2000/svg" xmlns:xlink="http://www.w3.org/1999/xlink" x="0px" y="0px"
	 viewBox="0 0 72.8 53.4" style="enable-background:new 0 0 72.8 53.4;" xml:space="preserve">
<style type="text/css">
	.st0{clip-path:url(#SVGID_2_);fill:#FFFFFF;}
	.st1{clip-path:url(#SVGID_4_);fill:#FFFFFF;}
	.st2{clip-path:url(#SVGID_6_);fill:#FFFFFF;}
	.st3{clip-path:url(#SVGID_8_);fill:#FFFFFF;}
	.st4{clip-path:url(#SVGID_10_);fill:#FFFFFF;}
	.st5{clip-path:url(#SVGID_12_);fill:#FFFFFF;}
	.st6{clip-path:url(#SVGID_14_);fill:#FFFFFF;}
	.st7{clip-path:url(#SVGID_16_);fill:#FFFFFF;}
	.st8{clip-path:url(#SVGID_18_);fill:#FFFFFF;}
</style>
<g>
	<g>
		<defs>
			<rect id="SVGID_1_" x="4" y="0.1" width="64.9" height="53.3"/>
		</defs>
		<clipPath id="SVGID_2_">
			<use xlink:href="#SVGID_1_"  style="overflow:visible;"/>
		</clipPath>
		<path class="st0" d="M64.6,0.1H8.2C5.8,0.1,4,2,4,4.3v35.6c0,2.3,1.9,4.2,4.2,4.2h21.6l-1.4,4.2H25c-0.6,0-1,0.5-1,1v2.1h-9.4
			c-0.6,0-1,0.5-1,1c0,0.6,0.5,1,1,1h46c0.6,0,1-0.5,1-1c0-0.6-0.5-1-1-1H49v-2.1c0-0.6-0.5-1-1-1h-3.4l-1.4-4.2h21.6
			c2.3,0,4.2-1.9,4.2-4.2V4.3C68.8,2,67,0.1,64.6,0.1 M46.9,51.4h-21v-1h20.9v1H46.9z M30.5,48.3l1.4-4.2h9l1.4,4.2H30.5z
			 M66.7,39.9c0,1.2-0.9,2.1-2.1,2.1H8.2c-1.2,0-2.1-0.9-2.1-2.1v-2.1h60.7v2.1H66.7z M21.7,26.3l-0.4,9.4h-1.2l-0.4-9.4H21.7z
			 M19.9,24.2l0.7-4.2h0.3l0.7,4.2H19.9z M20.7,17.9c-1.1,0-2.1-1.4-2.1-3.1c0-1.1,1.1-2.6,2.1-3.7c0.9,1,2.1,2.6,2.1,3.7
			C22.8,16.5,21.8,17.9,20.7,17.9 M32.1,15.8l0.1,0.2v0.8H28V16l0.1-0.2H32.1z M29.2,13.7l0.9-1.8l0.9,1.8H29.2z M32.2,19v16.6v0.1
			H28v-0.1V19H32.2z M41.6,14.8h3.1v2.1h-1c-0.6,0-1,0.5-1,1c0,0.6,0.5,1,1,1h1V21h-3.1c-0.6,0-1,0.5-1,1s0.5,1,1,1h3.1v2.1h-1
			c-0.6,0-1,0.5-1,1c0,0.6,0.5,1,1,1h1v2.3h-3.1c-0.6,0-1,0.5-1,1s0.5,1,1,1h3.1v4.2h-7.3v-25h7.3v2.1h-3.1c-0.6,0-1,0.5-1,1
			C40.6,14.3,41.1,14.8,41.6,14.8 M54.2,27.3v8.2v0.1H50v-0.1v-8.2H54.2z M50,25.2v-0.8l2.1-4.2l2.1,4.2v0.8H50z M66.7,35.7H56.3
			v-0.1V24.2c0-0.2,0-0.3-0.1-0.5L53,17.4c-0.3-0.5-0.9-0.7-1.4-0.5c-0.2,0.1-0.4,0.3-0.5,0.5L48,23.7c-0.1,0.1-0.1,0.3-0.1,0.5
			v11.4v0.1h-1.1V9.5c0-0.6-0.5-1-1-1h-9.4c-0.6,0-1,0.5-1,1v26.2h-1.1v-0.1V15.8c0-0.2,0-0.3-0.1-0.5L31.1,9
			c-0.3-0.5-0.9-0.7-1.4-0.5c-0.2,0.1-0.4,0.3-0.5,0.5L26,15.4c-0.1,0.1-0.1,0.3-0.1,0.5v19.7v0.1h-2.5l0.4-10.4c0,0,0,0,0-0.1l0,0
			v-0.1l0,0l-1-5.8c1.2-0.9,2-2.6,2-4.5c0-2.7-3.1-5.7-3.5-6c-0.4-0.4-1-0.4-1.4,0c-0.4,0.3-3.5,3.3-3.5,6c0,1.9,0.8,3.6,2,4.5
			l-1,5.8l0,0v0.1l0,0c0,0,0,0,0,0.1L18,35.7H6.1V4.3c0-1.2,0.9-2.1,2.1-2.1h56.5c1.2,0,2.1,0.9,2.1,2.1L66.7,35.7L66.7,35.7z"/>
	</g>
	<g>
		<defs>
			<rect id="SVGID_3_" x="4" y="0.1" width="64.9" height="53.3"/>
		</defs>
		<clipPath id="SVGID_4_">
			<use xlink:href="#SVGID_3_"  style="overflow:visible;"/>
		</clipPath>
		<path class="st1" d="M15.5,38.8H9.2c-0.6,0-1,0.5-1,1c0,0.6,0.5,1,1,1h6.3c0.6,0,1-0.5,1-1S16.1,38.8,15.5,38.8"/>
	</g>
	<g>
		<defs>
			<rect id="SVGID_5_" x="4" y="0.1" width="64.9" height="53.3"/>
		</defs>
		<clipPath id="SVGID_6_">
			<use xlink:href="#SVGID_5_"  style="overflow:visible;"/>
		</clipPath>
		<path class="st2" d="M19.7,38.8h-1c-0.6,0-1,0.5-1,1c0,0.6,0.5,1,1,1h1c0.6,0,1-0.5,1-1S20.2,38.8,19.7,38.8"/>
	</g>
	<g>
		<defs>
			<rect id="SVGID_7_" x="4" y="0.1" width="64.9" height="53.3"/>
		</defs>
		<clipPath id="SVGID_8_">
			<use xlink:href="#SVGID_7_"  style="overflow:visible;"/>
		</clipPath>
		<path class="st3" d="M30.1,20c-0.6,0-1,0.5-1,1v11.5c0,0.6,0.5,1,1,1s1-0.5,1-1V21.1C31.2,20.5,30.7,20,30.1,20"/>
	</g>
	<g>
		<defs>
			<rect id="SVGID_9_" x="4" y="0.1" width="64.9" height="53.3"/>
		</defs>
		<clipPath id="SVGID_10_">
			<use xlink:href="#SVGID_9_"  style="overflow:visible;"/>
		</clipPath>
		<path class="st4" d="M52.1,28.4c-0.6,0-1,0.5-1,1v3.1c0,0.6,0.5,1,1,1c0.6,0,1-0.5,1-1v-3.1C53.1,28.8,52.7,28.4,52.1,28.4"/>
	</g>
	<g>
		<defs>
			<rect id="SVGID_11_" x="4" y="0.1" width="64.9" height="53.3"/>
		</defs>
		<clipPath id="SVGID_12_">
			<use xlink:href="#SVGID_11_"  style="overflow:visible;"/>
		</clipPath>
		<path class="st5" d="M9.2,6.4h8.4c0.6,0,1-0.5,1-1c0-0.6-0.5-1-1-1H9.2c-0.6,0-1,0.5-1,1S8.6,6.4,9.2,6.4"/>
	</g>
	<g>
		<defs>
			<rect id="SVGID_13_" x="4" y="0.1" width="64.9" height="53.3"/>
		</defs>
		<clipPath id="SVGID_14_">
			<use xlink:href="#SVGID_13_"  style="overflow:visible;"/>
		</clipPath>
		<path class="st6" d="M9.2,9.5h2.1c0.6,0,1-0.5,1-1c0-0.6-0.5-1-1-1H9.2c-0.6,0-1,0.5-1,1C8.2,9.1,8.6,9.5,9.2,9.5"/>
	</g>
	<g>
		<defs>
			<rect id="SVGID_15_" x="4" y="0.1" width="64.9" height="53.3"/>
		</defs>
		<clipPath id="SVGID_16_">
			<use xlink:href="#SVGID_15_"  style="overflow:visible;"/>
		</clipPath>
		<path class="st7" d="M59.4,33.6h4.2c0.6,0,1-0.5,1-1s-0.5-1-1-1h-4.2c-0.6,0-1,0.5-1,1S58.8,33.6,59.4,33.6"/>
	</g>
	<g>
		<defs>
			<rect id="SVGID_17_" x="4" y="0.1" width="64.9" height="53.3"/>
		</defs>
		<clipPath id="SVGID_18_">
			<use xlink:href="#SVGID_17_"  style="overflow:visible;"/>
		</clipPath>
		<path class="st8" d="M62.6,30.5h1c0.6,0,1-0.5,1-1c0-0.6-0.5-1-1-1h-1c-0.6,0-1,0.5-1,1C61.5,30,62,30.5,62.6,30.5"/>
	</g>
</g>
</svg>
