<?xml version="1.0" encoding="utf-8"?>
<!-- Generator: Adobe Illustrator 22.1.0, SVG Export Plug-In . SVG Version: 6.00 Build 0)  -->
<svg version="1.1" id="Capa_1" xmlns="http://www.w3.org/2000/svg" xmlns:xlink="http://www.w3.org/1999/xlink" x="0px" y="0px"
	 viewBox="0 0 72.8 68.8" style="enable-background:new 0 0 72.8 68.8;" xml:space="preserve">
<style type="text/css">
	.st0{clip-path:url(#SVGID_2_);fill:#FFFFFF;}
	.st1{clip-path:url(#SVGID_4_);fill:#FFFFFF;}
	.st2{clip-path:url(#SVGID_6_);fill:#FFFFFF;}
	.st3{clip-path:url(#SVGID_8_);fill:#FFFFFF;}
	.st4{clip-path:url(#SVGID_10_);fill:#FFFFFF;}
	.st5{clip-path:url(#SVGID_12_);fill:#FFFFFF;}
</style>
<g>
	<g>
		<defs>
			<rect id="SVGID_1_" x="1.1" y="-0.9" width="72.6" height="68.7"/>
		</defs>
		<clipPath id="SVGID_2_">
			<use xlink:href="#SVGID_1_"  style="overflow:visible;"/>
		</clipPath>
		<path class="st0" d="M20.5,42.8c0.7-0.4,0.9-1.3,0.5-1.9c-0.4-0.7-1.3-0.9-1.9-0.5c-0.7,0.4-0.9,1.3-0.5,1.9S19.8,43.2,20.5,42.8"
			/>
	</g>
	<g>
		<defs>
			<rect id="SVGID_3_" x="1.1" y="-0.9" width="72.6" height="68.7"/>
		</defs>
		<clipPath id="SVGID_4_">
			<use xlink:href="#SVGID_3_"  style="overflow:visible;"/>
		</clipPath>
		<path class="st1" d="M14.7,52.6L21.8,65c1.5,2.7,5,3.7,7.8,2.1c2.7-1.6,3.6-5,2.1-7.7L27.4,52l3.7-2.1c0.7-0.4,0.9-1.3,0.5-1.9
			l-1.8-3.2c0.2,0,1.7-0.3,27.2-5.3c3.2-0.2,5-3.6,3.5-6.4l-4.7-8.2l3-4.6c0.3-0.4,0.3-1,0-1.5L56,13.9c-0.3-0.5-0.8-0.7-1.3-0.7
			l-5.5,0.3L44,4.4c-0.8-1.3-2.1-2.1-3.6-2.1c0,0,0,0-0.1,0c-1.5,0-2.8,0.7-3.6,2L18.1,27.8l-12,7c-4.7,2.7-6.4,8.8-3.6,13.6
			C4.9,52.6,10.2,54.4,14.7,52.6 M29.2,60.7c0.8,1.4,0.3,3.1-1,3.9c-1.4,0.8-3.1,0.3-3.9-1l-7.1-12.3l4.9-2.8
			C30.3,62.6,29.1,60.4,29.2,60.7 M26,49.4L24.6,47l2.5-1.4l1.4,2.5L26,49.4z M53.9,16l2,3.4L54.1,22l-3.4-5.9L53.9,16z M39,5.7
			C39.4,5.1,40,5,40.2,5s0.8,0.1,1.2,0.7l16.5,28.6c0.5,0.9-0.1,2.1-1.2,2.1c-0.2,0-0.3,0-0.8,0.1L38.5,6.4
			C38.9,5.9,38.9,5.9,39,5.7 M36.6,8.8L53,37.2L28.3,42l-7.5-13L36.6,8.8z M4.9,46.9c-0.6-1.1-1-2.3-1-3.5c0-2.5,1.4-4.9,3.5-6.1
			l11.1-6.4l7.1,12.3l-11.1,6.4C11.2,51.4,6.8,50.3,4.9,46.9"/>
	</g>
	<g>
		<defs>
			<rect id="SVGID_5_" x="1.1" y="-0.9" width="72.6" height="68.7"/>
		</defs>
		<clipPath id="SVGID_6_">
			<use xlink:href="#SVGID_5_"  style="overflow:visible;"/>
		</clipPath>
		<path class="st2" d="M16.1,43.7c-0.4-0.7-1.3-0.9-1.9-0.5l-2.5,1.4c-0.6,0.4-1.5,0.1-1.9-0.6s-1.3-0.9-1.9-0.5
			c-0.7,0.4-0.9,1.3-0.5,1.9c1.2,2,3.8,2.7,5.8,1.6l2.5-1.4C16.3,45.2,16.5,44.3,16.1,43.7"/>
	</g>
	<g>
		<defs>
			<rect id="SVGID_7_" x="1.1" y="-0.9" width="72.6" height="68.7"/>
		</defs>
		<clipPath id="SVGID_8_">
			<use xlink:href="#SVGID_7_"  style="overflow:visible;"/>
		</clipPath>
		<path class="st3" d="M71.6,5.3l-7.9,4.4c-0.7,0.4-0.9,1.2-0.6,1.9c0.4,0.7,1.2,0.9,1.9,0.5l8-4.4c0.7-0.4,0.9-1.2,0.5-1.9
			S72.3,4.9,71.6,5.3"/>
	</g>
	<g>
		<defs>
			<rect id="SVGID_9_" x="1.1" y="-0.9" width="72.6" height="68.7"/>
		</defs>
		<clipPath id="SVGID_10_">
			<use xlink:href="#SVGID_9_"  style="overflow:visible;"/>
		</clipPath>
		<path class="st4" d="M70.8,19.9l-5.5-1.5c-0.8-0.2-1.5,0.2-1.7,1s0.2,1.5,1,1.7l5.5,1.5c0.8,0.2,1.5-0.3,1.7-1
			S71.5,20.1,70.8,19.9"/>
	</g>
	<g>
		<defs>
			<rect id="SVGID_11_" x="1.1" y="-0.9" width="72.6" height="68.7"/>
		</defs>
		<clipPath id="SVGID_12_">
			<use xlink:href="#SVGID_11_"  style="overflow:visible;"/>
		</clipPath>
		<path class="st5" d="M57,0.1l-1.5,5.5c-0.2,0.8,0.2,1.5,1,1.7s1.5-0.2,1.7-1l1.5-5.5c0.2-0.8-0.2-1.5-1-1.7
			C58-1.1,57.2-0.7,57,0.1"/>
	</g>
</g>
</svg>
