<?xml version="1.0" encoding="utf-8"?>
<!-- Generator: Adobe Illustrator 22.1.0, SVG Export Plug-In . SVG Version: 6.00 Build 0)  -->
<svg version="1.1" id="Capa_1" xmlns="http://www.w3.org/2000/svg" xmlns:xlink="http://www.w3.org/1999/xlink" x="0px" y="0px"
	 viewBox="0 0 72.8 52" style="enable-background:new 0 0 72.8 52;" xml:space="preserve">
<style type="text/css">
	.st0{clip-path:url(#SVGID_2_);fill:#FFFFFF;}
	.st1{clip-path:url(#SVGID_4_);fill:#020202;}
	.st2{clip-path:url(#SVGID_6_);fill:#FFFFFF;}
	.st3{clip-path:url(#SVGID_8_);fill:#020202;}
	.st4{clip-path:url(#SVGID_10_);fill:#FFFFFF;}
	.st5{clip-path:url(#SVGID_12_);fill:#020202;}
</style>
<g>
	<g>
		<defs>
			<rect id="SVGID_1_" x="0.3" width="72.3" height="52"/>
		</defs>
		<clipPath id="SVGID_2_">
			<use xlink:href="#SVGID_1_"  style="overflow:visible;"/>
		</clipPath>
		<path class="st0" d="M38.8,4.1L38.8,4.1c-0.7,0-1.3,0.6-1.3,1.3v41.3c0,0.7,0.6,1.3,1.3,1.3l0,0c0.7,0,1.3-0.6,1.3-1.3v-2
			c0-0.7,0.6-1.3,1.3-1.3h0.8c0.7,0,1.3,0.6,1.3,1.3v2c0,0.7,0.6,1.3,1.3,1.3H65c0.7,0,1.3-0.6,1.3-1.3v-2c0-0.7,0.6-1.3,1.3-1.3
			h0.8c0.7,0,1.3,0.6,1.3,1.3v2c0,0.7,0.6,1.3,1.3,1.3l0,0c0.7,0,1.3-0.6,1.3-1.3V5.4c0-0.7-0.6-1.3-1.3-1.3l0,0
			c-0.7,0-1.3,0.6-1.3,1.3v2.1c0,0.7-0.6,1.3-1.3,1.3h-0.8c-0.7,0-1.3-0.6-1.3-1.3V5.4c0-0.7-0.6-1.3-1.3-1.3H44.7
			c-0.7,0-1.3,0.6-1.3,1.3v2.1c0,0.7-0.6,1.3-1.3,1.3h-0.8c-0.7,0-1.3-0.6-1.3-1.3V5.4C40.1,4.6,39.5,4.1,38.8,4.1 M40.1,15.4v-2.8
			c0-0.7,0.6-1.3,1.3-1.3h0.8c0.7,0,1.3,0.6,1.3,1.3v2.9c0,0.7-0.6,1.3-1.3,1.3h-0.8C40.7,16.7,40.1,16.1,40.1,15.4 M40.1,23.4v-2.8
			c0-0.7,0.6-1.3,1.3-1.3h0.8c0.7,0,1.3,0.6,1.3,1.3v2.9c0,0.7-0.6,1.3-1.3,1.3h-0.8C40.7,24.7,40.1,24.2,40.1,23.4 M40.1,39.5v-2.9
			c0-0.7,0.6-1.3,1.3-1.3h0.8c0.7,0,1.3,0.6,1.3,1.3v2.9c0,0.7-0.6,1.3-1.3,1.3h-0.8C40.7,40.8,40.1,40.2,40.1,39.5 M69.6,36.6v2.9
			c0,0.7-0.6,1.3-1.3,1.3h-0.8c-0.7,0-1.3-0.6-1.3-1.3v-2.9c0-0.7,0.6-1.3,1.3-1.3h0.8C69,35.3,69.6,35.9,69.6,36.6 M69.6,28.6v2.9
			c0,0.7-0.6,1.3-1.3,1.3h-0.8c-0.7,0-1.3-0.6-1.3-1.3v-2.9c0-0.7,0.6-1.3,1.3-1.3h0.8C69,27.3,69.6,27.9,69.6,28.6 M63.7,28.6v15.5
			c0,0.7-0.6,1.3-1.3,1.3H47.3c-0.7,0-1.3-0.6-1.3-1.3V28.6c0-0.7,0.6-1.3,1.3-1.3h15.1C63.1,27.3,63.7,27.9,63.7,28.6 M43.4,28.6
			v2.9c0,0.7-0.6,1.3-1.3,1.3h-0.8c-0.7,0-1.3-0.6-1.3-1.3v-2.9c0-0.7,0.6-1.3,1.3-1.3h0.8C42.9,27.3,43.4,27.9,43.4,28.6
			 M69.6,20.6v2.9c0,0.7-0.6,1.3-1.3,1.3h-0.8c-0.7,0-1.3-0.6-1.3-1.3v-2.9c0-0.7,0.6-1.3,1.3-1.3h0.8C69,19.3,69.6,19.9,69.6,20.6
			 M69.6,12.6v2.9c0,0.7-0.6,1.3-1.3,1.3h-0.8c-0.7,0-1.3-0.6-1.3-1.3v-2.9c0-0.7,0.6-1.3,1.3-1.3h0.8C69,11.3,69.6,11.9,69.6,12.6
			 M47.3,6.6h15.1c0.7,0,1.3,0.6,1.3,1.3v15.5c0,0.7-0.6,1.3-1.3,1.3H47.3c-0.7,0-1.3-0.6-1.3-1.3V7.9C46,7.2,46.6,6.6,47.3,6.6"/>
	</g>
	<g>
		<defs>
			<rect id="SVGID_3_" x="0.3" width="72.3" height="52"/>
		</defs>
		<clipPath id="SVGID_4_">
			<use xlink:href="#SVGID_3_"  style="overflow:visible;"/>
		</clipPath>
		<path class="st1" d="M70.9,48.3c-0.9,0-1.7-0.7-1.7-1.7v-2c0-0.5-0.4-0.9-0.9-0.9h-0.8c-0.2,0-0.5,0.1-0.6,0.3
			c-0.2,0.2-0.3,0.4-0.3,0.7v2c0,0.4-0.2,0.9-0.5,1.2c-0.3,0.3-0.7,0.5-1.2,0.5H44.7c-0.4,0-0.9-0.2-1.2-0.5
			c-0.3-0.3-0.5-0.7-0.5-1.2v-2c0-0.2-0.1-0.5-0.3-0.7c-0.2-0.2-0.4-0.3-0.7-0.3h-0.8c-0.2,0-0.5,0.1-0.7,0.3
			c-0.2,0.2-0.3,0.4-0.3,0.7v2c0,0.4-0.2,0.9-0.5,1.2c-0.3,0.3-0.7,0.5-1.2,0.5c-0.9,0-1.7-0.7-1.7-1.7V5.4c0-0.9,0.7-1.7,1.7-1.7
			l0,0c0.4,0,0.9,0.2,1.2,0.5s0.5,0.7,0.5,1.2v2.1c0,0.2,0.1,0.5,0.3,0.7s0.4,0.3,0.7,0.3H42c0.2,0,0.5-0.1,0.7-0.3
			C42.9,8,43,7.8,43,7.6V5.5c0-0.4,0.2-0.9,0.5-1.2s0.7-0.5,1.2-0.5H65c0.4,0,0.9,0.2,1.2,0.5c0.3,0.3,0.5,0.7,0.5,1.2v2.1
			c0,0.2,0.1,0.5,0.3,0.7c0.2,0.2,0.4,0.3,0.6,0.3h0.8c0.5,0,0.9-0.4,0.9-0.9V5.6c0-0.9,0.7-1.7,1.7-1.7c0.9,0,1.7,0.7,1.7,1.7v41.3
			C72.5,47.6,71.8,48.3,70.9,48.3 M67.5,43h0.8c0.9,0,1.7,0.7,1.7,1.7v2c0,0.5,0.4,0.9,0.9,0.9s0.9-0.4,0.9-0.9V5.4
			c0-0.5-0.4-0.9-0.9-0.9S70,4.9,70,5.4v2.1c0,0.9-0.7,1.7-1.7,1.7h-0.8c-0.4,0-0.9-0.2-1.2-0.5C66,8.4,65.8,8,65.8,7.5V5.4
			c0-0.2-0.1-0.5-0.3-0.7c-0.2-0.2-0.4-0.3-0.7-0.3H44.7c-0.2,0-0.5,0.1-0.6,0.3c-0.2,0.2-0.3,0.4-0.3,0.7v2.1
			c0,0.4-0.2,0.9-0.5,1.2C43,9,42.6,9.2,42.1,9.2h-0.8c-0.4,0-0.9-0.2-1.2-0.5S39.6,8,39.6,7.5V5.4c0-0.2-0.1-0.5-0.3-0.7
			s-0.4-0.3-0.7-0.3c-0.5,0-0.9,0.4-0.9,0.9v41.3c0,0.5,0.4,0.9,0.9,0.9c0.2,0,0.5-0.1,0.7-0.3c0.2-0.2,0.3-0.4,0.3-0.6v-2
			c0-0.4,0.2-0.9,0.5-1.2c0.3-0.3,0.7-0.5,1.2-0.5h0.8c0.4,0,0.9,0.2,1.2,0.5c0.3,0.3,0.5,0.7,0.5,1.2v2c0,0.2,0.1,0.5,0.3,0.7
			c0.2,0.2,0.4,0.3,0.6,0.3H65c0.2,0,0.5-0.1,0.7-0.3c0.2-0.2,0.3-0.4,0.3-0.7v-2c0-0.4,0.2-0.9,0.5-1.2C66.7,43.2,67.1,43,67.5,43
			 M62.4,45.7H47.3c-0.9,0-1.7-0.7-1.7-1.7V28.6c0-0.9,0.7-1.7,1.7-1.7h15.1c0.9,0,1.7,0.7,1.7,1.7v15.5C64,45,63.3,45.7,62.4,45.7
			 M47.3,27.7c-0.5,0-0.9,0.4-0.9,0.9v15.5c0,0.5,0.4,0.9,0.9,0.9h15.1c0.5,0,0.9-0.4,0.9-0.9V28.6c0-0.5-0.4-0.9-0.9-0.9H47.3z
			 M68.3,41.1h-0.8c-0.9,0-1.7-0.7-1.7-1.7v-2.8c0-0.9,0.7-1.7,1.7-1.7h0.8c0.9,0,1.7,0.7,1.7,1.7v2.9C70,40.4,69.2,41.1,68.3,41.1
			 M67.5,35.7c-0.5,0-0.9,0.4-0.9,0.9v2.9c0,0.5,0.4,0.9,0.9,0.9h0.8c0.5,0,0.9-0.4,0.9-0.9v-2.9c0-0.5-0.4-0.9-0.9-0.9H67.5z
			 M42.2,41.1h-0.8c-0.9,0-1.7-0.7-1.7-1.7v-2.8c0-0.9,0.7-1.7,1.7-1.7h0.8c0.9,0,1.7,0.7,1.7,1.7v2.9
			C43.8,40.4,43.1,41.1,42.2,41.1 M41.4,35.7c-0.5,0-0.9,0.4-0.9,0.9v2.9c0,0.5,0.4,0.9,0.9,0.9h0.8c0.5,0,0.9-0.4,0.9-0.9v-2.9
			c0-0.5-0.4-0.9-0.9-0.9H41.4z M68.3,33.1h-0.8c-0.9,0-1.7-0.7-1.7-1.7v-2.8c0-0.9,0.7-1.7,1.7-1.7h0.8c0.9,0,1.7,0.7,1.7,1.7v2.9
			C70,32.4,69.2,33.1,68.3,33.1 M67.5,27.7c-0.5,0-0.9,0.4-0.9,0.9v2.9c0,0.5,0.4,0.9,0.9,0.9h0.8c0.5,0,0.9-0.4,0.9-0.9v-2.9
			c0-0.5-0.4-0.9-0.9-0.9H67.5z M42.2,33.1h-0.8c-0.9,0-1.7-0.7-1.7-1.7v-2.8c0-0.9,0.7-1.7,1.7-1.7h0.8c0.9,0,1.7,0.7,1.7,1.7v2.9
			C43.8,32.4,43.1,33.1,42.2,33.1 M41.4,27.7c-0.5,0-0.9,0.4-0.9,0.9v2.9c0,0.5,0.4,0.9,0.9,0.9h0.8c0.5,0,0.9-0.4,0.9-0.9v-2.9
			c0-0.5-0.4-0.9-0.9-0.9H41.4z M68.3,25.1h-0.8c-0.9,0-1.7-0.7-1.7-1.7v-2.8c0-0.9,0.7-1.7,1.7-1.7h0.8c0.9,0,1.7,0.7,1.7,1.7v2.9
			C70,24.4,69.2,25.1,68.3,25.1 M67.5,19.7c-0.5,0-0.9,0.4-0.9,0.9v2.9c0,0.5,0.4,0.9,0.9,0.9h0.8c0.5,0,0.9-0.4,0.9-0.9v-2.9
			c0-0.5-0.4-0.9-0.9-0.9H67.5z M62.4,25.1H47.3c-0.9,0-1.7-0.7-1.7-1.7V7.9c0-0.9,0.7-1.7,1.7-1.7h15.1c0.9,0,1.7,0.7,1.7,1.7v15.5
			C64,24.4,63.3,25.1,62.4,25.1 M47.3,7c-0.5,0-0.9,0.4-0.9,0.9v15.5c0,0.5,0.4,0.9,0.9,0.9h15.1c0.5,0,0.9-0.4,0.9-0.9V7.9
			c0-0.5-0.4-0.9-0.9-0.9H47.3z M42.2,25.1h-0.8c-0.9,0-1.7-0.7-1.7-1.7v-2.8c0-0.9,0.7-1.7,1.7-1.7h0.8c0.9,0,1.7,0.7,1.7,1.7v2.9
			C43.8,24.4,43.1,25.1,42.2,25.1 M41.4,19.7c-0.5,0-0.9,0.4-0.9,0.9v2.9c0,0.5,0.4,0.9,0.9,0.9h0.8c0.5,0,0.9-0.4,0.9-0.9v-2.9
			c0-0.5-0.4-0.9-0.9-0.9H41.4z M68.3,17.1h-0.8c-0.9,0-1.7-0.7-1.7-1.7v-2.8c0-0.9,0.7-1.7,1.7-1.7h0.8c0.9,0,1.7,0.7,1.7,1.7v2.9
			C70,16.3,69.2,17.1,68.3,17.1 M67.5,11.6c-0.5,0-0.9,0.4-0.9,0.9v2.9c0,0.5,0.4,0.9,0.9,0.9h0.8c0.5,0,0.9-0.4,0.9-0.9v-2.8
			c0-0.5-0.4-0.9-0.9-0.9h-0.8V11.6z M42.2,17.1h-0.8c-0.9,0-1.7-0.7-1.7-1.7v-2.8c0-0.9,0.7-1.7,1.7-1.7h0.8c0.9,0,1.7,0.7,1.7,1.7
			v2.9C43.8,16.3,43.1,17.1,42.2,17.1 M41.4,11.6c-0.5,0-0.9,0.4-0.9,0.9v2.9c0,0.5,0.4,0.9,0.9,0.9h0.8c0.5,0,0.9-0.4,0.9-0.9v-2.8
			c0-0.5-0.4-0.9-0.9-0.9h-0.8V11.6z"/>
	</g>
	<g>
		<defs>
			<rect id="SVGID_5_" x="0.3" width="72.3" height="52"/>
		</defs>
		<clipPath id="SVGID_6_">
			<use xlink:href="#SVGID_5_"  style="overflow:visible;"/>
		</clipPath>
		<path class="st2" d="M16.1,38.7h1.5c5.3,0,9.6-4.3,9.6-9.6V9.9c0-5.3-4.3-9.6-9.6-9.6h-1.5c-5.3,0-9.6,4.3-9.6,9.6v19.2
			C6.6,34.4,10.9,38.7,16.1,38.7 M9.1,23H14c0.7,0,1.3-0.6,1.3-1.3c0-0.7-0.6-1.3-1.3-1.3H9.1v-2.8H14c0.7,0,1.3-0.6,1.3-1.3
			S14.7,15,14,15H9.1v-2.7H14c0.7,0,1.3-0.6,1.3-1.3c0-0.7-0.6-1.3-1.3-1.3H9.2c0.1-1.8,0.8-3.4,2-4.7c1.3-1.3,3.1-2.1,4.9-2.1h1.5
			c3.8,0,6.8,3,7,6.7h-4.2c-0.7,0-1.3,0.6-1.3,1.3c0,0.7,0.6,1.3,1.3,1.3h4.2v2.7h-4.2c-0.7,0-1.3,0.6-1.3,1.3s0.6,1.3,1.3,1.3h4.2
			v2.9h-4.2c-0.7,0-1.3,0.6-1.3,1.3c0,0.7,0.6,1.3,1.3,1.3h4.2v6.1c0,3.9-3.1,7-7,7h-1.5c-3.9,0-7-3.1-7-7C9.1,29.1,9.1,23,9.1,23z"
			/>
	</g>
	<g>
		<defs>
			<rect id="SVGID_7_" x="0.3" width="72.3" height="52"/>
		</defs>
		<clipPath id="SVGID_8_">
			<use xlink:href="#SVGID_7_"  style="overflow:visible;"/>
		</clipPath>
		<path class="st3" d="M17.7,39h-1.5c-5.5,0-9.9-4.5-9.9-9.9V9.9c0-2.6,1-5.1,2.9-7s4.4-2.9,7-2.9h1.5c5.5,0,9.9,4.5,9.9,9.9v19.2
			C27.6,34.6,23.2,39,17.7,39 M16.1,0.7c-2.4,0-4.8,1-6.5,2.7S6.9,7.5,6.9,9.9v19.2c0,5.1,4.1,9.2,9.2,9.2h1.5
			c5.1,0,9.2-4.1,9.2-9.2V9.9c0-5.1-4.1-9.2-9.2-9.2C17.6,0.7,16.1,0.7,16.1,0.7z M17.7,36.5h-1.5c-4.1,0-7.4-3.3-7.4-7.4v-6.5h5.3
			c0.5,0,0.9-0.4,0.9-0.9s-0.4-0.9-0.9-0.9H8.8v-3.6h5.3c0.5,0,0.9-0.4,0.9-0.9s-0.4-0.9-0.9-0.9H8.8v-3.5h5.3
			c0.5,0,0.9-0.4,0.9-0.9s-0.4-0.9-0.9-0.9H8.8V9.7C8.9,7.8,9.6,6.1,11,4.8c1.4-1.4,3.2-2.2,5.2-2.2h1.5c4,0,7.2,3.1,7.3,7.1v0.4
			h-4.6c-0.5,0-0.9,0.4-0.9,0.9s0.4,0.9,0.9,0.9H25v3.5h-4.6c-0.5,0-0.9,0.4-0.9,0.9s0.4,0.9,0.9,0.9H25v3.6h-4.6
			c-0.5,0-0.9,0.4-0.9,0.9s0.4,0.9,0.9,0.9H25v6.5C25,33.2,21.7,36.5,17.7,36.5 M9.5,23.4v5.7c0,3.7,3,6.6,6.6,6.6h1.5
			c3.7,0,6.6-3,6.6-6.6v-5.7h-3.9c-0.9,0-1.7-0.7-1.7-1.7c0-0.9,0.7-1.7,1.7-1.7h3.9v-2.1h-3.9c-0.9,0-1.7-0.7-1.7-1.7
			s0.7-1.7,1.7-1.7h3.9v-2h-3.9c-0.9,0-1.7-0.7-1.7-1.7c0-0.9,0.7-1.7,1.7-1.7h3.8c-0.3-3.4-3.1-6-6.6-6H16c-1.8,0-3.4,0.7-4.7,1.9
			c-1.1,1.1-1.8,2.5-1.9,4h4.5c0.9,0,1.7,0.7,1.7,1.7c0,0.9-0.7,1.7-1.7,1.7H9.5v2h4.6c0.9,0,1.7,0.7,1.7,1.7s-0.7,1.7-1.7,1.7H9.5
			v2.1h4.6c0.9,0,1.7,0.7,1.7,1.7c0,0.9-0.7,1.7-1.7,1.7H9.5V23.4z"/>
	</g>
	<g>
		<defs>
			<rect id="SVGID_9_" x="0.3" width="72.3" height="52"/>
		</defs>
		<clipPath id="SVGID_10_">
			<use xlink:href="#SVGID_9_"  style="overflow:visible;"/>
		</clipPath>
		<path class="st4" d="M33.2,29.2c0-0.7-0.6-1.3-1.3-1.3s-1.3,0.6-1.3,1.3l0,0l0,0v0.4c0,6.7-5.5,12.2-12.2,12.2h-3
			c-6.7,0-12.2-5.4-12.2-12.2v-0.4l0,0l0,0c0-0.7-0.6-1.3-1.3-1.3s-1.3,0.6-1.3,1.3l0,0l0,0v0.4c0,8.1,6.6,14.8,14.8,14.8h0.2l0,0
			V49l0,0h-5.3c-0.7,0-1.3,0.4-1.4,1.1c-0.1,0.9,0.5,1.5,1.2,1.5h13.4c0.7,0,1.3-0.4,1.4-1.1c0.1-0.8-0.5-1.5-1.3-1.5h-5.4l0,0v-4.6
			l0,0h0.2c8.1,0,14.8-6.6,14.8-14.8V29.2L33.2,29.2L33.2,29.2"/>
	</g>
	<g>
		<defs>
			<rect id="SVGID_11_" x="0.3" width="72.3" height="52"/>
		</defs>
		<clipPath id="SVGID_12_">
			<use xlink:href="#SVGID_11_"  style="overflow:visible;"/>
		</clipPath>
		<path class="st5" d="M23.6,52H10.1c-0.5,0-0.9-0.2-1.3-0.6c-0.3-0.4-0.5-0.8-0.4-1.3c0.1-0.8,0.9-1.4,1.7-1.4h5v-3.9
			C7,44.7,0.3,37.9,0.3,29.6v-0.4c0-0.9,0.7-1.6,1.6-1.6s1.7,0.7,1.7,1.6v0.4c0,6.5,5.3,11.8,11.8,11.8h3c6.5,0,11.8-5.3,11.8-11.8
			v-0.4c0-0.9,0.7-1.7,1.7-1.7c0.9,0,1.7,0.7,1.7,1.6v0.5c0,8.3-6.7,15.1-15,15.1v3.9h5.1c0.5,0,0.9,0.2,1.3,0.6
			c0.3,0.4,0.5,0.8,0.4,1.3C25.2,51.4,24.4,52,23.6,52 M10.2,49.4c-0.5,0-0.9,0.3-1,0.8c0,0.3,0,0.5,0.2,0.7
			c0.2,0.2,0.4,0.3,0.7,0.3h13.4c0.5,0,0.9-0.3,1-0.8c0-0.3,0-0.5-0.2-0.7c-0.2-0.2-0.4-0.3-0.7-0.3h-5.8V49v-5h0.6
			c7.9,0,14.4-6.5,14.4-14.4v-0.4c0-0.5-0.4-0.9-0.9-0.9c-0.5,0-0.9,0.4-0.9,0.9v0.4c0,6.9-5.6,12.6-12.6,12.6h-3
			c-6.9,0-12.6-5.6-12.6-12.6v-0.4c0-0.5-0.4-0.9-0.9-0.9S1,28.7,1,29.2v0.4C1,37.6,7.5,44,15.4,44H16v0.4v5h-0.4
			C15.6,49.4,10.2,49.4,10.2,49.4z"/>
	</g>
</g>
</svg>
