<?xml version="1.0" encoding="utf-8"?>
<!-- Generator: Adobe Illustrator 22.1.0, SVG Export Plug-In . SVG Version: 6.00 Build 0)  -->
<svg version="1.1" id="Capa_1" xmlns="http://www.w3.org/2000/svg" xmlns:xlink="http://www.w3.org/1999/xlink" x="0px" y="0px"
	 viewBox="0 0 72.8 68.8" style="enable-background:new 0 0 72.8 68.8;" xml:space="preserve">
<style type="text/css">
	.st0{clip-path:url(#SVGID_2_);fill:#FFFFFF;}
</style>
<g>
	<defs>
		<rect id="SVGID_1_" x="5.9" y="0.9" width="61" height="67.1"/>
	</defs>
	<clipPath id="SVGID_2_">
		<use xlink:href="#SVGID_1_"  style="overflow:visible;"/>
	</clipPath>
	<path class="st0" d="M49.4,67.9c-0.6,0-1.1-0.2-1.5-0.6l-14-14c0,0-0.1,0-0.1,0H16.4c-5.8,0-10.5-4.7-10.5-10.5V11.4
		c0-5.8,4.7-10.5,10.5-10.5h40.1c5.8,0,10.5,4.7,10.5,10.5v31.4c0,5.8-4.7,10.5-10.5,10.5h-4.7c-0.1,0-0.2,0.1-0.2,0.2v12.4
		c0,0.9-0.5,1.7-1.3,2C50,67.9,49.7,67.9,49.4,67.9 M16.4,2.9c-4.7,0-8.5,3.8-8.5,8.5v31.4c0,4.7,3.8,8.5,8.5,8.5h17.4
		c0.6,0,1.1,0.2,1.5,0.6l14,14c0,0,0.1,0.1,0.2,0c0.1,0,0.1-0.1,0.1-0.1V53.4c0-1.2,1-2.2,2.2-2.2h4.7c4.7,0,8.5-3.8,8.5-8.5V11.4
		c0-4.7-3.8-8.5-8.5-8.5H16.4z"/>
	<path class="st0" d="M36.4,45.8c-0.2,0-0.4,0-0.5-0.1l-0.5-0.3c-0.8-0.5-18.9-11.6-18.9-23.7c0-6.1,5-11.1,11.1-11.1
		c3.5,0,6.8,1.7,8.8,4.4c2.1-2.8,5.3-4.4,8.8-4.4c6.1,0,11.1,5,11.1,11.1c0,12.1-18.1,23.2-18.9,23.7l-0.5,0.3
		C36.8,45.7,36.6,45.8,36.4,45.8 M27.6,12.6c-5,0-9.1,4.1-9.1,9.1c0,10.7,16.6,21.1,17.9,21.9c1.3-0.8,17.9-11.2,17.9-21.9
		c0-5-4.1-9.1-9.1-9.1c-3.3,0-6.4,1.8-8,4.7c-0.4,0.6-1.4,0.6-1.8,0C33.9,14.4,30.9,12.6,27.6,12.6"/>
	<path class="st0" d="M49.1,22.7c-0.6,0-1-0.4-1-1c0-1.6-1.3-2.9-2.9-2.9c-0.6,0-1-0.4-1-1c0-0.6,0.4-1,1-1c2.7,0,4.9,2.2,4.9,4.9
		C50.1,22.2,49.7,22.7,49.1,22.7"/>
</g>
</svg>
