<?xml version="1.0" encoding="utf-8"?>
<!-- Generator: Adobe Illustrator 22.1.0, SVG Export Plug-In . SVG Version: 6.00 Build 0)  -->
<svg version="1.1" id="Capa_1" xmlns="http://www.w3.org/2000/svg" xmlns:xlink="http://www.w3.org/1999/xlink" x="0px" y="0px"
	 viewBox="0 0 72.8 59.8" style="enable-background:new 0 0 72.8 59.8;" xml:space="preserve">
<style type="text/css">
	.st0{clip-path:url(#SVGID_2_);fill:#FFFFFF;}
	.st1{clip-path:url(#SVGID_4_);fill:#FFFFFF;}
</style>
<g>
	<g>
		<defs>
			<rect id="SVGID_1_" x="12.5" y="0.1" width="47.9" height="59.7"/>
		</defs>
		<clipPath id="SVGID_2_">
			<use xlink:href="#SVGID_1_"  style="overflow:visible;"/>
		</clipPath>
		<path class="st0" d="M59,24.2l-3.2-3.6c0.6-1.1,0.9-2.3,0.6-3.5c-0.2-1.3-1-2.5-2.1-3.3l-4.7-3.2c0-0.8-0.1-1.5-0.4-2.2
			c-0.5-1.3-1.5-2.2-2.8-2.7L36.1,1.6c-1.2-0.5-2.6-0.5-3.8,0c-0.9-0.9-2.2-1.5-3.6-1.5H17.6c-2.8,0-5.1,2.3-5.1,5.1v43.9
			c0,5.9,4.8,10.7,10.7,10.7c2.7,0,5.1-1,7-2.6c0,0,0.1,0,0.1-0.1l20-18c0.4-0.3,0.4-0.9,0.1-1.2c-0.5-0.4-1.1-0.4-1.4-0.1l-0.8,0.7
			l-2.7-3l4.2-6.1l3.8,4.2l-1.7,1.6c-0.4,0.3-0.4,0.9-0.1,1.2c0.2,0.2,0.4,0.3,0.7,0.3c0.2,0,0.4-0.1,0.6-0.2l5.7-5.2
			c1-0.9,1.6-2.2,1.7-3.5C60.4,26.5,59.9,25.2,59,24.2 M54.7,17.4c0.2,0.9,0,1.8-0.5,2.5l-2.4,3.4l-5.4-3.7l2.9-7.2l4.1,2.8
			C54,15.8,54.5,16.6,54.7,17.4 M46.4,31.2l-3.6-2.5l2.9-7.4l5.1,3.5L46.4,31.2z M41,39.1l-1.8-1.3l2.9-7.4l3.3,2.3L41,39.1z
			 M42.3,25.1l-2.5-1c-0.4-0.2-1,0-1.1,0.5c-0.2,0.4,0,1,0.5,1.1l2.5,1l-3,7.6l-4.9-1.9v-8.8l1.9,0.7c0.1,0,0.2,0.1,0.3,0.1
			c0.3,0,0.7-0.2,0.8-0.6c0.2-0.4,0-1-0.5-1.1l-2.5-1v-8.8l11.5,4.6L42.3,25.1z M32,19.6h-9.9c-0.5,0-0.9,0.4-0.9,0.9
			s0.4,0.9,0.9,0.9H32v8.1H14.2v-8.1h4.1c0.5,0,0.9-0.4,0.9-0.9s-0.4-0.9-0.9-0.9h-4.1v-8.1H32V19.6z M14.2,31.2H32v8.1H14.2V31.2z
			 M33.8,34.2l4.2,1.7l-4.2,10.6V34.2z M39.2,44.6l1,1.1l-4.5,4.1L39.2,44.6z M35.4,47l3-7.6l1.5,1L35.4,47z M35.5,3.2l10.3,4.1
			c0.8,0.3,1.5,1,1.8,1.8c0.2,0.6,0.3,1.2,0.2,1.8l0,0c0,0.3-0.1,0.5-0.2,0.8L46,15.9L33.8,11V5.2c0-0.7-0.2-1.5-0.4-2.1
			C34,2.9,34.8,2.9,35.5,3.2 M17.6,1.8h11.1c1.9,0,3.4,1.5,3.4,3.4v4.6H14.2V5.2C14.2,3.3,15.7,1.8,17.6,1.8 M14.2,49.1v-8H32v8
			c0,4.9-4,8.9-8.9,8.9S14.2,54,14.2,49.1 M46.9,39.7l-5.4,4.8l-1.3-1.4l4.2-6.1L46.9,39.7z M58.6,27.8c0,0.9-0.4,1.7-1.1,2.3
			l-2.7,2.4L50.7,28l4.1-5.9l2.9,3.3C58.3,26.1,58.6,26.9,58.6,27.8"/>
	</g>
	<g>
		<defs>
			<rect id="SVGID_3_" x="12.5" y="0.1" width="47.9" height="59.7"/>
		</defs>
		<clipPath id="SVGID_4_">
			<use xlink:href="#SVGID_3_"  style="overflow:visible;"/>
		</clipPath>
		<path class="st1" d="M22.9,44.9c-2.3,0-4.2,1.9-4.2,4.2s1.9,4.2,4.2,4.2s4.2-1.9,4.2-4.2C27.1,46.8,25.2,44.9,22.9,44.9
			 M22.9,51.6c-1.4,0-2.5-1.1-2.5-2.5s1.1-2.5,2.5-2.5s2.5,1.1,2.5,2.5S24.3,51.6,22.9,51.6"/>
	</g>
</g>
</svg>
