<svg id="Capa_1" data-name="Capa 1" xmlns="http://www.w3.org/2000/svg" viewBox="0 0 280 280"><defs><style>.cls-1{fill:#252525;}.cls-2,.cls-3{fill:#fff;}.cls-3{fill-rule:evenodd;}</style></defs><title>icon_Wsp_E</title><circle class="cls-1" cx="140" cy="140" r="136.33"/><path class="cls-2" d="M68.37,211.82l10.84-40.45A74.85,74.85,0,1,1,109,200.93Zm42.68-26,2.56,1.53a60.77,60.77,0,1,0-20.79-20.6l1.57,2.58-6.05,22.58Z"/><path class="cls-3" d="M172.3,145.68c-3.07-1.84-7.07-3.89-10.69-2.41-2.78,1.14-4.55,5.49-6.35,7.71a2.66,2.66,0,0,1-3.44.75A48.44,48.44,0,0,1,127.64,131c-1-1.49-.8-2.67.37-4,1.74-2,3.92-4.37,4.39-7.13s-.82-6-2-8.44c-1.46-3.14-3.09-7.61-6.23-9.39-2.89-1.63-6.7-.72-9.27,1.38a18.82,18.82,0,0,0-6.52,14.91A21.18,21.18,0,0,0,109,123a39.19,39.19,0,0,0,4.54,10.46,82.57,82.57,0,0,0,4.74,7.21,73.16,73.16,0,0,0,20.55,19.08,62.19,62.19,0,0,0,12.82,6.09c5,1.66,9.5,3.39,14.92,2.36,5.68-1.08,11.28-4.59,13.53-10.06a8.75,8.75,0,0,0,.63-5.14C180,149.49,175.17,147.39,172.3,145.68Z"/></svg>